HIERARCHY
ROOT pelvis
{
  OFFSET 0 100 0
  CHANNELS 6 Xposition Yposition Zposition Zrotation Xrotation Yrotation
  JOINT pelvis_right_femur
  {
    OFFSET -10.78128 -3.44521 -0.5502486
    CHANNELS 3 Zrotation Xrotation Yrotation
    JOINT right_femur_tibia
    {
      OFFSET -0.8047443 -44.0398 -0.1307829
      CHANNELS 3 Zrotation Xrotation Yrotation
      JOINT right_tibia_foot
      {
        OFFSET 3.006224 -47.83518 -5
        CHANNELS 3 Zrotation Xrotation Yrotation
        End Site
        {
          OFFSET 0 -5 15
        }
      }
    }
  }
  JOINT pelvis_left_femur
  {
    OFFSET 10.78128 -3.44521 -0.5502486
    CHANNELS 3 Zrotation Xrotation Yrotation
    JOINT left_femur_tibia
    {
      OFFSET 0.8047443 -44.0398 -0.1307829
      CHANNELS 3 Zrotation Xrotation Yrotation
      JOINT left_tibia_foot
      {
        OFFSET -4.370144 -48.10324 -4.275266
        CHANNELS 3 Zrotation Xrotation Yrotation
        End Site
        {
          OFFSET 0 -5 15
        }
      }
    }
  }
  JOINT pelvis_spine1
  {
    OFFSET 0 6.468898 -3.129235
    CHANNELS 3 Zrotation Xrotation Yrotation
    JOINT spine1
    {
      OFFSET 0 23.15396 4.99043
      CHANNELS 3 Zrotation Xrotation Yrotation
      JOINT spine2
      {
        OFFSET 0 20.79997 -5.064912
        CHANNELS 3 Zrotation Xrotation Yrotation
        JOINT neck
        {
          OFFSET 0 14.38658 9.616178
          CHANNELS 3 Zrotation Xrotation Yrotation
          End Site
          {
            OFFSET 0 20 0
          }
        }
      }
      JOINT right_manubrium
      {
        OFFSET -5.722621 16.35077 3.967754
        CHANNELS 3 Zrotation Xrotation Yrotation
        JOINT right_clavicle
        {
          OFFSET -13.16364 1.694482 -4.693211
          CHANNELS 3 Zrotation Xrotation Yrotation
          JOINT right_humerus
          {
            OFFSET -28.5034 -0.3100689 -2.792744
            CHANNELS 3 Zrotation Xrotation Yrotation
            JOINT right_radius
            {
              OFFSET -25.15693 0.02248979 -1.271978
              CHANNELS 3 Zrotation Xrotation Yrotation
              End Site
              {
                OFFSET -15 0 0
              }
            }
          }
        }
      }
      JOINT left_manubrium
      {
        OFFSET 5.722621 16.35077 3.967754
        CHANNELS 3 Zrotation Xrotation Yrotation
        JOINT left_clavicle
        {
          OFFSET 13.16364 1.694482 -4.693211
          CHANNELS 3 Zrotation Xrotation Yrotation
          JOINT left_humerus
          {
            OFFSET 29.39168 -1.063119 -2.237045
            CHANNELS 3 Zrotation Xrotation Yrotation
            JOINT left_radius
            {
              OFFSET 24.59957 -0.9528479 0.9047498
              CHANNELS 3 Zrotation Xrotation Yrotation
              End Site
              {
                OFFSET 15 -0 -0
              }
            }
          }
        }
      }
    }
  }
}
MOTION
Frames: 7
Frame Time: 0.0416666666667
0 103.5113 0 -0.2092528 -2.582247 0.04384291 5.770432 -13.45372 9.080824 -0 41.51655 -0 -8.231085 -19.03876 -5.687759 -4.843424 9.01215 -20.85382 -0 6.783141 -0 12.72101 -10.97451 24.58357 -2.19182 -2.298187 4.897845 2.840038 9.369745 -7.527716 1.216486 20.67734 7.041885 3.933358 -25.86626 8.990005 5.79894 -18.90258 11.47529 84.77341 35.313 -18.00103 -0 0 15.46217 -9.436917 9.261724 4.883802 6.89608 -20.85043 -1.04308 -93.22368 21.38759 21.35315 0 0 -14.56556 12.02122 15.45651 -0.8524667
0.3548699 103.8932 1.40196 -0.3955638 -1.471494 0.1960652 6.453109 -16.16898 9.667936 -0 41.3046 -0 -7.430873 -18.84813 -5.572608 -4.991995 9.275936 -20.97161 -0 7.061406 -0 12.34952 -12.24971 24.13025 -2.204215 -2.378127 4.628072 3.004439 9.341242 -7.749076 1.245403 20.65917 7.142788 3.87478 -26.16188 9.25874 5.80114 -18.53122 11.43904 85.41501 35.28948 -18.96463 -0 0 14.59292 -9.251131 9.495771 4.688689 7.028541 -21.09355 -1.019954 -92.77038 21.36658 20.4427 0 0 -15.33792 12.59674 15.5831 -1.47522
0.6639429 104.0222 3.097859 -0.04891742 -1.560809 0.2957416 5.828115 -17.85805 8.392409 -0 37.9513 -0 -7.08697 -15.7328 -4.652549 -5.505174 10.75788 -20.8732 -0 7.6552 -0 10.60978 -14.72813 24.34714 -2.206189 -2.254013 4.630687 2.996503 9.386959 -7.761297 1.198158 20.62579 7.066422 3.868515 -25.98065 8.994538 5.803783 -18.55063 11.46875 85.27362 35.10784 -18.77862 -0 0 14.60684 -9.477629 9.41406 5.085307 6.864471 -21.00698 -1.10015 -92.6699 21.64172 20.47837 0 0 -15.45467 11.71382 15.19694 -0.3709432
0.9495151 104.0191 5.070738 -0.04758351 -0.9541552 0.4114828 5.921546 -20.60438 7.46499 -0 34.52375 -0 -6.827363 -13.05844 -3.863545 -5.750091 11.53458 -20.30793 -0 8.358895 -0 9.393848 -16.78674 23.701 -2.208731 -2.183003 4.567702 3.021311 9.43304 -7.826754 1.163381 20.59157 7.049359 3.867935 -25.89832 8.86143 5.808035 -18.46123 11.48688 85.35102 35.00038 -18.90149 -0 0 14.36808 -9.664117 9.446804 5.325386 6.802079 -21.04562 -1.16768 -92.43141 21.71821 20.21366 0 0 -15.75307 11.3277 14.92971 0.1270785
1.218218 103.8726 7.330171 -0.1229484 -0.3356392 0.559277 6.059166 -23.05968 6.609622 -0 31.23866 -0 -6.724393 -10.74492 -3.200394 -5.865774 12.06105 -19.62753 -0 8.953607 -0 8.294445 -18.40527 22.83984 -2.214611 -2.135899 4.450153 3.095765 9.426978 -7.927158 1.155582 20.57043 7.026237 3.813769 -25.92268 8.814948 5.806968 -18.32534 11.48396 85.51347 34.83401 -19.17253 -0 0 14.04356 -9.668457 9.476851 5.503338 6.719923 -21.04492 -1.197568 -92.22792 22.03638 19.91706 0 0 -16.14308 10.85239 14.74522 0.7785529
1.477783 103.6204 9.945753 -0.3480311 0.4566833 0.7645574 6.422867 -25.65803 5.755146 -0 27.74641 -0 -6.808547 -8.369339 -2.550553 -5.829959 12.35495 -18.63998 -0 9.894959 -0 7.312428 -19.62178 21.52386 -2.219292 -2.095928 4.324663 3.171735 9.426178 -8.034958 1.147415 20.54785 7.012905 3.765107 -25.95206 8.781633 5.807242 -18.17384 11.48129 85.70851 34.68702 -19.48666 -0 0 13.68095 -9.681537 9.530257 5.65898 6.656832 -21.07189 -1.230427 -91.99482 22.29839 19.56818 0 0 -16.55784 10.46899 14.57506 1.313545
1.732284 103.2894 12.9761 -0.6608878 1.249228 1.034138 6.842646 -27.97615 4.892457 -0 24.31204 -0 -7.117727 -6.016389 -1.928427 -5.673394 12.50409 -17.49227 -0 11.2305 -0 6.326737 -20.35755 19.9184 -2.2228 -2.052916 4.19273 3.248362 9.431909 -8.149382 1.136267 20.52233 7.001511 3.719138 -25.97203 8.741252 5.808431 -18.01115 11.48059 85.91968 34.54136 -19.82195 -0 0 13.29003 -9.717274 9.598969 5.824824 6.596095 -21.11328 -1.271363 -91.73207 22.54051 19.1814 0 0 -17.0011 10.09134 14.38938 1.841193
